<?xml version="1.0" encoding="utf-8"?>
<!-- Generator: Adobe Illustrator 21.0.0, SVG Export Plug-In . SVG Version: 6.00 Build 0)  -->
<svg version="1.1" id="Layer_1" xmlns="http://www.w3.org/2000/svg" xmlns:xlink="http://www.w3.org/1999/xlink" x="0px" y="0px"
	 viewBox="0 0 50 50" enable-background="new 0 0 50 50" xml:space="preserve">
<g>
	<path fill="none" stroke="#FFFFFF" stroke-width="1.6651" stroke-linejoin="round" stroke-miterlimit="10" d="M38.8,38.8L38.8,38.8
		c0.1,0,0.1,0,0.2,0c4.8,0,8.7-3.9,8.7-8.7c0-4.6-3.6-8.4-8.1-8.7c-0.3-5.9-5.2-10.6-11.1-10.6c-4.5,0-8.3,2.6-10.1,6.5
		c-1.3-0.5-2.7-0.8-4.2-0.8c-6.2,0-11.2,5-11.2,11.2c0,6.2,5,11.2,11.2,11.2c0,0,0.1,0,0.1,0"/>

		<line fill="none" stroke="#FFFFFF" stroke-width="1.6651" stroke-linejoin="round" stroke-miterlimit="10" x1="38.8" y1="38.7" x2="14.1" y2="38.7"/>
</g>
</svg>
