<?xml version="1.0" encoding="utf-8"?>
<!-- Generator: Adobe Illustrator 21.0.0, SVG Export Plug-In . SVG Version: 6.00 Build 0)  -->
<svg version="1.1" id="Layer_1" xmlns="http://www.w3.org/2000/svg" xmlns:xlink="http://www.w3.org/1999/xlink" x="0px" y="0px"
	 viewBox="0 0 50 50" enable-background="new 0 0 50 50" xml:space="preserve">
<g>
	<path id="XMLID_63_" fill="none" stroke="#FFFFFF" stroke-width="1.6" stroke-linejoin="round" stroke-miterlimit="10" d="
		M13.8,13.7V6.4c0-0.9,0.8-1.7,1.7-1.7h28.8c0.9,0,1.7,0.8,1.7,1.7v38.1c0,0.9-0.8,1.7-1.7,1.7H15.5"/>
	<path id="XMLID_62_" fill="none" stroke="#FFFFFF" stroke-width="1.6" stroke-linejoin="round" stroke-miterlimit="10" d="
		M21.3,46.2h-15c-0.9,0-1.7-0.8-1.7-1.7V15.8c0-0.9,0.8-1.7,1.7-1.7h15c0.9,0,1.7,0.8,1.7,1.7v28.7C23,45.4,22.2,46.2,21.3,46.2z"/>
	<path id="XMLID_61_" fill="none" stroke="#FFFFFF" stroke-width="1.6" stroke-linejoin="round" stroke-miterlimit="10" d="M23,20.7
		h8.1c0.9,0,1.7,0.8,1.7,1.7v22.1c0,0.9-0.8,1.7-1.7,1.7h-23"/>

		<line id="XMLID_60_" fill="none" stroke="#FFFFFF" stroke-width="1.6" stroke-linejoin="round" stroke-miterlimit="10" x1="4.5" y1="39" x2="23" y2="39"/>

		<line id="XMLID_59_" fill="none" stroke="#FFFFFF" stroke-width="1.6" stroke-linejoin="round" stroke-miterlimit="10" x1="23" y1="39" x2="46" y2="39"/>
	<circle id="XMLID_1_" fill="none" stroke="#FFFFFF" stroke-width="1.6" stroke-miterlimit="10" cx="13.8" cy="42.6" r="1.2"/>
</g>
</svg>
