<?xml version="1.0" encoding="utf-8"?>
<!-- Generator: Adobe Illustrator 21.0.0, SVG Export Plug-In . SVG Version: 6.00 Build 0)  -->
<svg version="1.1" id="Layer_1" xmlns="http://www.w3.org/2000/svg" xmlns:xlink="http://www.w3.org/1999/xlink" x="0px" y="0px"
	 viewBox="0 0 50 50" enable-background="new 0 0 50 50" xml:space="preserve">
<g>

		<circle fill="none" stroke="#FFFFFF" stroke-width="1.56" stroke-linecap="round" stroke-linejoin="round" stroke-miterlimit="10" cx="25" cy="32.5" r="15.5"/>
	<g>
		<path fill="none" stroke="#FFFFFF" stroke-width="1.56" stroke-miterlimit="10" d="M27.8,31c0-1.5-1.2-2.7-2.7-2.7
			c-1.5,0-2.7,1.2-2.7,2.7c0,1.1,0.7,2.1,1.7,2.5v4.7c0,0.6,0.5,1,1,1c0.6,0,1-0.5,1-1v-4.7C27.1,33.1,27.8,32.2,27.8,31"/>
	</g>
	<g>

			<path fill="none" stroke="#FFFFFF" stroke-width="1.56" stroke-linecap="round" stroke-linejoin="round" stroke-miterlimit="10" d="
			M17.3,19V9.2c0-4.3,3.5-7.7,7.7-7.7c4.3,0,7.7,3.5,7.7,7.7V19"/>
	</g>
</g>
</svg>
