<?xml version="1.0" encoding="utf-8"?>
<!-- Generator: Adobe Illustrator 21.0.0, SVG Export Plug-In . SVG Version: 6.00 Build 0)  -->
<svg version="1.1" id="Layer_1" xmlns="http://www.w3.org/2000/svg" xmlns:xlink="http://www.w3.org/1999/xlink" x="0px" y="0px"
	 viewBox="0 0 50 50" enable-background="new 0 0 50 50" xml:space="preserve">
<path id="Watson_Avatar_Flat_4_" fill="#FFFFFF" d="M8.4,20.8c-0.1,0-0.3,0-0.4-0.1l-4.2-2.4C3.3,18,3.2,17.4,3.4,17
	c0.2-0.4,0.8-0.6,1.2-0.3l4.2,2.4c0.4,0.2,0.6,0.8,0.3,1.2C9,20.6,8.7,20.8,8.4,20.8z M16,13.5c0.4-0.2,0.6-0.8,0.3-1.2l-2.4-4.2
	c-0.2-0.4-0.8-0.6-1.2-0.3c-0.4,0.2-0.6,0.8-0.3,1.2l2.4,4.2c0.2,0.3,0.5,0.4,0.8,0.4C15.7,13.6,15.9,13.5,16,13.5z M26.2,10.1V5.2
	c0-0.5-0.4-0.9-0.9-0.9c-0.5,0-0.9,0.4-0.9,0.9v4.8c0,0.5,0.4,0.9,0.9,0.9C25.8,11,26.2,10.6,26.2,10.1z M35.9,13.1l2.4-4.2
	c0.2-0.4,0.1-1-0.3-1.2c-0.4-0.2-1-0.1-1.2,0.3l-2.4,4.2c-0.2,0.4-0.1,1,0.3,1.2c0.1,0.1,0.3,0.1,0.4,0.1
	C35.5,13.6,35.8,13.4,35.9,13.1z M42.8,20.6l4.2-2.4c0.4-0.2,0.6-0.8,0.3-1.2c-0.2-0.4-0.8-0.6-1.2-0.3l-4.2,2.4
	c-0.4,0.2-0.6,0.8-0.3,1.2c0.2,0.3,0.5,0.4,0.8,0.4C42.5,20.8,42.7,20.7,42.8,20.6z M26.1,14.3c-1.6,0-3.4,0.4-4.5,0.7
	c-0.1,0-0.2,0.1-0.2,0.2c0,0.1,0.1,0.2,0.2,0.2c0.1,0,0.3-0.1,0.5-0.1c0.9-0.1,1.4-0.2,2.7-0.2c1.5,0,2.9,0.3,4.4,0.8
	C23.4,18,17.7,25.9,15.8,33c-2.1-2.3-3.4-4.9-3.4-7.4c0-4.1,3.4-6.6,8.3-6.6c0.2,0,0.3,0,0.4,0c0.1,0,0.1-0.1,0.1-0.2
	c0-0.1-0.1-0.1-0.2-0.2c-0.3-0.1-1.1-0.1-1.9-0.1c-4.9,0-8.5,2.5-8.5,7.1c0,3.1,1.8,6.5,4.7,9.4c-0.2,1-0.3,2-0.3,2.9
	c0,0.4,0,1.1,0.2,1.9c-1.7-1.5-3-3.3-3.7-5.2c-0.1-0.4-0.4-1.1-0.5-1.3c0-0.1-0.1-0.2-0.2-0.2c-0.1,0-0.2,0.1-0.2,0.2
	c0,0.1,0,0.4,0.1,0.5c1,5.2,6.2,11.8,14.6,11.8c9.4,0,15.8-7.7,15.8-15.8C41.2,21.4,34.8,14.3,26.1,14.3z M25.3,43.7
	c-3,0-5.6-1.1-6.7-1.7c-1.5-0.8-1.9-2.2-1.9-4.1c0-0.5,0-1.1,0.1-1.6c3.7,3.1,8.7,5.3,13.6,5.3c1.1,0,2.1-0.2,3-0.4l0,0
	C31.9,42.4,28.9,43.7,25.3,43.7z M30.4,39.9c-4.7,0-9.7-2.3-13.2-5.5c1.8-8.2,9.2-17.3,13.9-17.3c0.5,0,1,0.1,1.6,0.5
	c0.9,0.6,1.8,1.3,2.5,2c2.2,2.1,4.2,5.7,4.2,10.1c0,3.4-1.2,6.1-2.4,7.7C35.6,39.2,33.1,39.9,30.4,39.9z"/>
</svg>
