<?xml version="1.0" encoding="utf-8"?>
<!-- Generator: Adobe Illustrator 18.1.1, SVG Export Plug-In . SVG Version: 6.00 Build 0)  -->
<svg version="1.1" id="Layer_1" xmlns="http://www.w3.org/2000/svg" xmlns:xlink="http://www.w3.org/1999/xlink" x="0px" y="0px"
	 viewBox="0 0 40 40" enable-background="new 0 0 40 40" xml:space="preserve">
<g>

		<line fill="none" stroke="#FFFFFF" stroke-width="1.6142" stroke-linejoin="round" stroke-miterlimit="10" x1="26.7" y1="34.7" x2="33.1" y2="34.7"/>
	<path fill="none" stroke="#FFFFFF" stroke-width="1.6142" stroke-linejoin="round" stroke-miterlimit="10" d="M37.4,38.5
		c0-8-6.1-14.7-13.5-16.4c2.9-1.4,4.9-4.4,4.9-7.8v-1.8c-3.7-0.7-5.1-2.7-7.1-5.2c-2.2,3.1-4.3,5.3-10.6,5.3v1.6c0,3.5,2,6.5,5,7.9
		C8.6,23.9,2.6,30.5,2.6,38.5"/>
	<path fill="none" stroke="#FFFFFF" stroke-width="1.6142" stroke-linejoin="round" stroke-miterlimit="10" d="M13.6,20.5H8.4v-6.8
		C8.4,7.3,13.6,2.1,20,2.1s11.6,5.2,11.6,11.6v6.8h-5.5"/>

		<circle fill="none" stroke="#FFFFFF" stroke-width="1.6142" stroke-linejoin="round" stroke-miterlimit="10" cx="20.1" cy="18" r="1.4"/>
	<path fill="none" stroke="#FFFFFF" stroke-width="1.6142" stroke-linejoin="round" stroke-miterlimit="10" d="M28.7,13.5
		c-1.2,3.4-4.1,4.6-7.3,4.6"/>
	<polyline fill="none" stroke="#FFFFFF" stroke-width="1.6142" stroke-linejoin="round" stroke-miterlimit="10" points="28.4,23.9
		20,38.5 11.6,23.9 	"/>
</g>
</svg>
