<?xml version="1.0" encoding="utf-8"?>
<!-- Generator: Adobe Illustrator 18.1.1, SVG Export Plug-In . SVG Version: 6.00 Build 0)  -->
<svg version="1.1" id="Layer_1" xmlns="http://www.w3.org/2000/svg" xmlns:xlink="http://www.w3.org/1999/xlink" x="0px" y="0px"
	 viewBox="0 0 40 40" enable-background="new 0 0 40 40" xml:space="preserve">
<g>
	<g>
		<path fill="none" stroke="#FFFFFF" stroke-width="1.4126" stroke-linejoin="round" stroke-miterlimit="10" d="M-477.2-22.3v-9.9
			h14.1c0.7,0,1.5,0,2.2,0.1 M-457.4-2.7c-1.6,0.5-3.5,0.7-5.4,0.7h-14.5v-12.2 M-452.5-23c-0.5,2-1.9,3.5-3.8,4.5
			c3.2,0.9,5.2,3.7,5.2,7.1c0,1.1-0.1,2.2-0.4,3.1 M-457-31.3c2.1,0.8,3.8,2.1,4.4,4.4 M-469.4-20.3h6.1c1.3,0,3.2-0.7,3.2-2.9
			c0-2.2-1.6-2.9-3.2-2.9h-6.1V-20.3z M-469.4-8.3h6.3c2.5,0,4.2-0.9,4.2-3.4c0-2.7-1.9-3.5-4.2-3.5h-6.3V-8.3z"/>
	</g>

		<rect x="-481.2" y="-25.8" fill="none" stroke="#FFFFFF" stroke-width="1.4126" stroke-linejoin="round" stroke-miterlimit="10" width="3.9" height="3.9"/>

		<rect x="-485" y="-22" fill="none" stroke="#FFFFFF" stroke-width="1.4126" stroke-linejoin="round" stroke-miterlimit="10" width="3.9" height="3.9"/>

		<rect x="-477.2" y="-22" fill="none" stroke="#FFFFFF" stroke-width="1.4126" stroke-linejoin="round" stroke-miterlimit="10" width="3.9" height="3.9"/>

		<rect x="-481.1" y="-14.4" fill="none" stroke="#FFFFFF" stroke-width="1.4126" stroke-linejoin="round" stroke-miterlimit="10" width="3.9" height="3.9"/>

		<rect x="-484.8" y="-10.8" fill="none" stroke="#FFFFFF" stroke-width="1.4126" stroke-linejoin="round" stroke-miterlimit="10" width="3.9" height="3.9"/>

		<rect x="-485" y="-18.1" fill="none" stroke="#FFFFFF" stroke-width="1.4126" stroke-linejoin="round" stroke-miterlimit="10" width="3.9" height="3.9"/>

		<rect x="-450.2" y="-19.4" fill="none" stroke="#FFFFFF" stroke-width="1.4126" stroke-linejoin="round" stroke-miterlimit="10" width="3.9" height="3.9"/>

		<rect x="-446.3" y="-15.7" fill="none" stroke="#FFFFFF" stroke-width="1.4126" stroke-linejoin="round" stroke-miterlimit="10" width="3.9" height="3.9"/>

		<rect x="-453.7" y="-8.2" fill="none" stroke="#FFFFFF" stroke-width="1.4126" stroke-linejoin="round" stroke-miterlimit="10" width="3.9" height="3.9"/>

		<rect x="-454.1" y="-26.9" fill="none" stroke="#FFFFFF" stroke-width="1.4126" stroke-linejoin="round" stroke-miterlimit="10" width="3.9" height="3.9"/>

		<rect x="-450.2" y="-23.3" fill="none" stroke="#FFFFFF" stroke-width="1.4126" stroke-linejoin="round" stroke-miterlimit="10" width="3.9" height="3.9"/>

		<rect x="-457.4" y="-4.6" fill="none" stroke="#FFFFFF" stroke-width="1.4126" stroke-linejoin="round" stroke-miterlimit="10" width="3.9" height="3.9"/>

		<rect x="-460.8" y="-33.8" fill="none" stroke="#FFFFFF" stroke-width="1.4126" stroke-linejoin="round" stroke-miterlimit="10" width="3.9" height="3.9"/>

		<rect x="-473.2" y="-8.5" fill="none" stroke="#FFFFFF" stroke-width="1.4126" stroke-linejoin="round" stroke-miterlimit="10" width="3.9" height="3.9"/>
</g>
<g>

		<polygon fill="none" stroke="#FFFFFF" stroke-width="1.5586" stroke-linecap="round" stroke-linejoin="round" stroke-miterlimit="10" points="
		-56.7,-17.8 -62.1,-8.4 -72.9,-8.4 -78.3,-17.8 -72.9,-27.1 -62.1,-27.1 	"/>

		<polygon fill="none" stroke="#FFFFFF" stroke-width="1.5586" stroke-linecap="round" stroke-linejoin="round" stroke-miterlimit="10" points="
		-72.9,-8.4 -78.3,0.9 -89.1,0.9 -94.5,-8.4 -89.1,-17.8 -78.3,-17.8 	"/>

		<polygon fill="none" stroke="#FFFFFF" stroke-width="1.5586" stroke-linecap="round" stroke-linejoin="round" stroke-miterlimit="10" points="
		-56.7,0.9 -62.1,10.3 -72.9,10.3 -78.3,0.9 -72.9,-8.4 -62.1,-8.4 	"/>

		<circle fill="none" stroke="#FFFFFF" stroke-width="1.5586" stroke-linecap="round" stroke-linejoin="round" stroke-miterlimit="10" cx="-72.9" cy="-8.4" r="10.8"/>

		<polygon fill="none" stroke="#FFFFFF" stroke-width="1.5586" stroke-linecap="round" stroke-linejoin="round" stroke-miterlimit="10" points="
		-78.3,-17.8 -62.1,-8.4 -78.3,0.9 	"/>
</g>
<g>

		<circle id="XMLID_227_" fill="none" stroke="#FFFFFF" stroke-width="1.3628" stroke-linejoin="round" stroke-miterlimit="10" cx="-462.7" cy="92.8" r="18.1"/>

		<line fill="none" stroke="#FFFFFF" stroke-width="1.3628" stroke-linejoin="round" stroke-miterlimit="10" x1="-477.6" y1="83" x2="-458.2" y2="110.1"/>

		<line fill="none" stroke="#FFFFFF" stroke-width="1.3628" stroke-linejoin="round" stroke-miterlimit="10" x1="-450.7" y1="78.8" x2="-472.5" y2="108.3"/>

		<line fill="none" stroke="#FFFFFF" stroke-width="1.3628" stroke-linejoin="round" stroke-miterlimit="10" x1="-469.2" y1="75.8" x2="-454.1" y2="108.1"/>

		<line fill="none" stroke="#FFFFFF" stroke-width="1.3628" stroke-linejoin="round" stroke-miterlimit="10" x1="-479.7" y1="98.3" x2="-446.2" y2="85.9"/>

		<line fill="none" stroke="#FFFFFF" stroke-width="1.3628" stroke-linejoin="round" stroke-miterlimit="10" x1="-480.4" y1="88.4" x2="-448.6" y2="103.6"/>

		<line fill="none" stroke="#FFFFFF" stroke-width="1.3628" stroke-linejoin="round" stroke-miterlimit="10" x1="-459.7" y1="75.4" x2="-473.5" y2="106.6"/>

		<line fill="none" stroke="#FFFFFF" stroke-width="1.3628" stroke-linejoin="round" stroke-miterlimit="10" x1="-474.4" y1="79.2" x2="-445.9" y2="98.3"/>

		<line fill="none" stroke="#FFFFFF" stroke-width="1.3628" stroke-linejoin="round" stroke-miterlimit="10" x1="-444.8" y1="90.3" x2="-468.8" y2="109.6"/>
</g>
<g>
	<g>
		<polygon fill="none" stroke="#FFFFFF" stroke-width="1.3826" stroke-linejoin="round" stroke-miterlimit="10" points="-83.4,51.4
			-70.9,51.4 -83.5,29.6 -89.5,40.3 		"/>
		<polyline fill="none" stroke="#FFFFFF" stroke-width="1.3826" stroke-linejoin="round" stroke-miterlimit="10" points="-77,40.5
			-64.8,40.5 -70.9,51.4 		"/>
	</g>
	<g>
		<polygon fill="none" stroke="#FFFFFF" stroke-width="1.3826" stroke-linejoin="round" stroke-miterlimit="10" points="-57.6,26.1
			-70.1,26.1 -57.5,47.9 -51.5,37.2 		"/>
		<polyline fill="none" stroke="#FFFFFF" stroke-width="1.3826" stroke-linejoin="round" stroke-miterlimit="10" points="-64,37
			-76.2,37 -70.1,26.1 		"/>
	</g>
</g>
<g>
	<path fill="none" stroke="#FFFFFF" stroke-width="1.4126" stroke-linejoin="round" stroke-miterlimit="10" d="M-78.9,71.8
		l28.1,30.3c0,0,1.4,1.2,0.4,2.4l1.6,1.8l-13.2-4.3l-2.9,1.5c0,0-3,1.6-5.8-1.2l-13.8-14.4c0,0,8.7-4.2,15.1,3.2l-0.2-5.2l-8.8-9.3
		C-78.4,76.8-79.7,74.6-78.9,71.8z"/>
	<path fill="none" stroke="#FFFFFF" stroke-width="1.4126" stroke-linejoin="round" stroke-miterlimit="10" d="M-55.1,80.6
		c0,0-5.3,3.1-4.9,7l7.8,8.7c0,0,2.2-0.9,0.6-5.2L-55.1,80.6z"/>

		<circle fill="none" stroke="#FFFFFF" stroke-width="1.4126" stroke-linejoin="round" stroke-miterlimit="10" cx="-53.3" cy="102.2" r="0.3"/>
</g>
<g>
	<path fill="none" stroke="#FFFFFF" stroke-width="1.4126" stroke-linejoin="round" stroke-miterlimit="10" d="M-477.1,246.1
		L-477.1,246.1c-0.9,1.4-2.3,2-3.9,2c-3.9,0-5.8-3.3-5.8-6.9c0-3.4,1.9-6.7,5.7-6.7c1.5,0,3,0.6,3.8,1.9h0V230h3.5v17.7h-3.3V246.1z
		 M-480.2,237.2c-2.3,0-3.1,2-3.1,4.1c0,2,0.9,4.1,3.1,4.1c2.3,0,3-2,3-4.1C-477.2,239.2-477.9,237.2-480.2,237.2z"/>
	<path fill="none" stroke="#FFFFFF" stroke-width="1.4126" stroke-linejoin="round" stroke-miterlimit="10" d="M-454.3,247.7h-3.9
		l-3-12.1h0l-3,12.1h-3.9l-4.7-17.7h3.9l2.8,12.1h0l3.1-12.1h3.6l3,12.2h0l2.9-12.2h3.8L-454.3,247.7z"/>
</g>
<g>

		<line fill="none" stroke="#FFFFFF" stroke-width="1.4126" stroke-linejoin="round" stroke-miterlimit="10" x1="-462.7" y1="304.7" x2="-456.2" y2="304.7"/>
	<path fill="none" stroke="#FFFFFF" stroke-width="1.4126" stroke-linejoin="round" stroke-miterlimit="10" d="M-451.9,308.5
		c0-8.1-6.1-14.8-13.6-16.5c2.9-1.4,4.9-4.4,4.9-7.9v-1.8c-3.7-0.7-5.1-2.7-7.2-5.2c-2.2,3.1-4.3,5.3-10.7,5.3v1.6c0,3.5,2,6.5,5,8
		c-7.6,1.8-13.6,8.5-13.6,16.5"/>
	<path fill="none" stroke="#FFFFFF" stroke-width="1.4126" stroke-linejoin="round" stroke-miterlimit="10" d="M-475.9,290.4h-5.2
		v-6.8c0-6.4,5.2-11.7,11.7-11.7c6.4,0,11.7,5.2,11.7,11.7v6.8h-5.5"/>

		<circle fill="none" stroke="#FFFFFF" stroke-width="1.4126" stroke-linejoin="round" stroke-miterlimit="10" cx="-469.3" cy="287.9" r="1.4"/>
	<path fill="none" stroke="#FFFFFF" stroke-width="1.4126" stroke-linejoin="round" stroke-miterlimit="10" d="M-460.6,283.4
		c-1.2,3.4-4.1,4.6-7.4,4.6"/>
	<polyline fill="none" stroke="#FFFFFF" stroke-width="1.4126" stroke-linejoin="round" stroke-miterlimit="10" points="-461,293.8
		-469.4,308.5 -477.9,293.8 	"/>
</g>
<g>

		<polygon id="XMLID_226_" fill="none" stroke="#FFFFFF" stroke-width="1.6142" stroke-linejoin="round" stroke-miterlimit="10" points="
		-79.8,366.8 -79.8,387.2 -62,397.5 -44.2,387.2 -44.2,366.8 -62,377 	"/>

		<polyline id="XMLID_225_" fill="none" stroke="#FFFFFF" stroke-width="1.6142" stroke-linejoin="round" stroke-miterlimit="10" points="
		-53,371.8 -53,361.6 -62,377 -71,361.6 -71,371.8 	"/>
</g>
<g>
	<path id="XMLID_224_" fill="none" stroke="#FFFFFF" stroke-width="1.4126" stroke-linejoin="round" stroke-miterlimit="10" d="
		M-89.1,216.7h4l3.6,17.4c0.6,2.6,1.8,3.8,3.8,3.8c0,0,17.9,0,19.5,0c1.8,0,2.9-0.9,3.2-2.7l1.8-13.3H-80"/>
	<path id="XMLID_223_" fill="none" stroke="#FFFFFF" stroke-width="1.4126" stroke-linejoin="round" stroke-miterlimit="10" d="
		M-83.5,224.4l3.2,15.5c0.6,2.5,1.7,3.8,3.8,3.8h20.9"/>

		<circle id="XMLID_222_" fill="none" stroke="#FFFFFF" stroke-width="1.4126" stroke-linejoin="round" stroke-miterlimit="10" cx="-76.7" cy="250" r="2.7"/>

		<circle id="XMLID_221_" fill="none" stroke="#FFFFFF" stroke-width="1.4126" stroke-linejoin="round" stroke-miterlimit="10" cx="-60" cy="250" r="2.7"/>
</g>
<g>

		<line fill="none" stroke="#FFFFFF" stroke-width="1.6142" stroke-linejoin="round" stroke-miterlimit="10" x1="-467.8" y1="394.3" x2="-461.4" y2="394.3"/>
	<path fill="none" stroke="#FFFFFF" stroke-width="1.6142" stroke-linejoin="round" stroke-miterlimit="10" d="M-457.1,398.1
		c0-8-6.1-14.7-13.5-16.4c2.9-1.4,4.9-4.4,4.9-7.8v-1.8c-3.7-0.7-5.1-2.7-7.1-5.2c-2.2,3.1-4.3,5.3-10.6,5.3v1.6c0,3.5,2,6.5,5,7.9
		c-7.5,1.8-13.5,8.4-13.5,16.4"/>
	<path fill="none" stroke="#FFFFFF" stroke-width="1.6142" stroke-linejoin="round" stroke-miterlimit="10" d="M-480.9,380.1h-5.2
		v-6.8c0-6.4,5.2-11.6,11.6-11.6s11.6,5.2,11.6,11.6v6.8h-5.5"/>

		<circle fill="none" stroke="#FFFFFF" stroke-width="1.6142" stroke-linejoin="round" stroke-miterlimit="10" cx="-474.4" cy="377.6" r="1.4"/>
	<path fill="none" stroke="#FFFFFF" stroke-width="1.6142" stroke-linejoin="round" stroke-miterlimit="10" d="M-465.8,373.1
		c-1.2,3.4-4.1,4.6-7.3,4.6"/>
	<polyline fill="none" stroke="#FFFFFF" stroke-width="1.6142" stroke-linejoin="round" stroke-miterlimit="10" points="
		-466.1,383.5 -474.5,398.1 -482.9,383.5 	"/>
</g>
<g>
	<g>

			<line fill="none" stroke="#FFFFFF" stroke-width="1.5034" stroke-linecap="round" stroke-linejoin="round" stroke-miterlimit="10" x1="315.4" y1="449.1" x2="315.4" y2="460.5"/>
	</g>

		<polyline fill="none" stroke="#FFFFFF" stroke-width="1.5034" stroke-linecap="round" stroke-linejoin="round" stroke-miterlimit="10" points="
		337,467.4 332.9,474.5 328.3,471 323.6,474.5 319.6,467.4 	"/>
	<g>

			<path id="XMLID_898_" fill="none" stroke="#FFFFFF" stroke-width="1.5034" stroke-linecap="round" stroke-linejoin="round" stroke-miterlimit="10" d="
			M321.7,453c-0.8,1.3-1.3,2.8-1.3,4.4c0,3.2,1.9,6,4.7,7.3c-6.2,1.5-11.2,7-11.2,13.6"/>

			<path id="XMLID_786_" fill="none" stroke="#FFFFFF" stroke-width="1.5034" stroke-linecap="round" stroke-linejoin="round" stroke-miterlimit="10" d="
			M342.8,478.3c0-6.6-5-12.1-11.2-13.6c2.8-1.2,4.7-4,4.7-7.3c0-1.6-0.5-3.1-1.3-4.4"/>
	</g>

		<path fill="none" stroke="#FFFFFF" stroke-width="1.5034" stroke-linecap="round" stroke-linejoin="round" stroke-miterlimit="10" d="
		M321.7,450.1c1-1.1,3.2-2.5,6.6-2.5c3.5,0,5.5,1.5,6.7,2.5v2.9h-13.3V450.1z"/>

		<polyline fill="none" stroke="#FFFFFF" stroke-width="1.5034" stroke-linecap="round" stroke-linejoin="round" stroke-miterlimit="10" points="
		321.7,453 315.4,449 328.3,441.5 341.2,449 335,453 	"/>
</g>
<g>

		<rect x="-79" y="443" fill="none" stroke="#FFFFFF" stroke-width="1.6142" stroke-linejoin="round" stroke-miterlimit="10" width="7.2" height="7.2"/>
	<path fill="none" stroke="#FFFFFF" stroke-width="1.6142" stroke-linejoin="round" stroke-miterlimit="10" d="M-67.9,446.6h17.7
		c4,0,7.2,3.2,7.2,7.2l0,0c0,4-3.2,7.2-7.2,7.2h-3.3"/>
	<path fill="none" stroke="#FFFFFF" stroke-width="1.6142" stroke-linejoin="round" stroke-miterlimit="10" d="M-54.1,475.4h-17.7
		c-4,0-7.2-3.2-7.2-7.2v0c0-4,3.2-7.2,7.2-7.2h3.3"/>

		<rect x="-64.6" y="457.4" fill="none" stroke="#FFFFFF" stroke-width="1.6142" stroke-linejoin="round" stroke-miterlimit="10" width="7.2" height="7.2"/>

		<rect x="-50.2" y="471.8" fill="none" stroke="#FFFFFF" stroke-width="1.6142" stroke-linejoin="round" stroke-miterlimit="10" width="7.2" height="7.2"/>
</g>
<g>
	<g>

			<circle id="XMLID_2374_" fill="none" stroke="#FFFFFF" stroke-width="1.4126" stroke-linejoin="round" stroke-miterlimit="10" cx="-450.6" cy="27.2" r="3"/>

			<circle id="XMLID_2373_" fill="none" stroke="#FFFFFF" stroke-width="1.4126" stroke-linejoin="round" stroke-miterlimit="10" cx="-464.4" cy="35.1" r="3"/>

			<circle id="XMLID_2368_" fill="none" stroke="#FFFFFF" stroke-width="1.4126" stroke-linejoin="round" stroke-miterlimit="10" cx="-450.6" cy="43" r="3"/>

			<circle id="XMLID_2367_" fill="none" stroke="#FFFFFF" stroke-width="1.4126" stroke-linejoin="round" stroke-miterlimit="10" cx="-478.1" cy="27.2" r="3"/>

			<circle id="XMLID_2366_" fill="none" stroke="#FFFFFF" stroke-width="1.4126" stroke-linejoin="round" stroke-miterlimit="10" cx="-478.1" cy="43" r="3"/>

			<circle id="XMLID_2365_" fill="none" stroke="#FFFFFF" stroke-width="1.4126" stroke-linejoin="round" stroke-miterlimit="10" cx="-464.4" cy="51" r="3"/>

			<circle id="XMLID_2364_" fill="none" stroke="#FFFFFF" stroke-width="1.4126" stroke-linejoin="round" stroke-miterlimit="10" cx="-464.4" cy="19.2" r="3"/>

			<circle id="XMLID_2362_" fill="none" stroke="#FFFFFF" stroke-width="1.4126" stroke-linejoin="round" stroke-miterlimit="10" cx="-464.4" cy="19.2" r="3"/>

			<line id="XMLID_2361_" fill="none" stroke="#FFFFFF" stroke-width="1.4126" stroke-linejoin="round" stroke-miterlimit="10" x1="-467" y1="36.6" x2="-475.6" y2="41.6"/>

			<line id="XMLID_2360_" fill="none" stroke="#FFFFFF" stroke-width="1.4126" stroke-linejoin="round" stroke-miterlimit="10" x1="-464.4" y1="32.1" x2="-464.4" y2="22.2"/>

			<line id="XMLID_2359_" fill="none" stroke="#FFFFFF" stroke-width="1.4126" stroke-linejoin="round" stroke-miterlimit="10" x1="-461.7" y1="36.6" x2="-453.2" y2="41.5"/>

			<line id="XMLID_2358_" fill="none" stroke="#FFFFFF" stroke-width="1.4126" stroke-linejoin="round" stroke-miterlimit="10" x1="-461.8" y1="33.6" x2="-453.2" y2="28.6"/>

			<line id="XMLID_2357_" fill="none" stroke="#FFFFFF" stroke-width="1.4126" stroke-linejoin="round" stroke-miterlimit="10" x1="-464.4" y1="38.1" x2="-464.4" y2="48"/>

			<line id="XMLID_2356_" fill="none" stroke="#FFFFFF" stroke-width="1.4126" stroke-linejoin="round" stroke-miterlimit="10" x1="-467" y1="33.6" x2="-475.5" y2="28.7"/>

			<line id="XMLID_2355_" fill="none" stroke="#FFFFFF" stroke-width="1.4126" stroke-linejoin="round" stroke-miterlimit="10" x1="-475.4" y1="44.6" x2="-467.1" y2="49.7"/>

			<line id="XMLID_2354_" fill="none" stroke="#FFFFFF" stroke-width="1.4126" stroke-linejoin="round" stroke-miterlimit="10" x1="-461.7" y1="20.7" x2="-453.2" y2="25.6"/>

			<line id="XMLID_2348_" fill="none" stroke="#FFFFFF" stroke-width="1.4126" stroke-linejoin="round" stroke-miterlimit="10" x1="-450.6" y1="30.2" x2="-450.6" y2="40"/>

			<line id="XMLID_2346_" fill="none" stroke="#FFFFFF" stroke-width="1.4126" stroke-linejoin="round" stroke-miterlimit="10" x1="-478.1" y1="30.2" x2="-478.1" y2="40"/>

			<line id="XMLID_2345_" fill="none" stroke="#FFFFFF" stroke-width="1.4126" stroke-linejoin="round" stroke-miterlimit="10" x1="-453.2" y1="44.5" x2="-461.7" y2="49.5"/>

			<line id="XMLID_2344_" fill="none" stroke="#FFFFFF" stroke-width="1.4126" stroke-linejoin="round" stroke-miterlimit="10" x1="-466.8" y1="20.6" x2="-475.7" y2="25.8"/>
	</g>

		<line fill="none" stroke="#FFFFFF" stroke-width="1.4126" stroke-linejoin="round" stroke-miterlimit="10" x1="-462.7" y1="21.9" x2="-452.1" y2="40.4"/>

		<line fill="none" stroke="#FFFFFF" stroke-width="1.4126" stroke-linejoin="round" stroke-miterlimit="10" x1="-465.9" y1="21.9" x2="-476.6" y2="40.4"/>

		<line fill="none" stroke="#FFFFFF" stroke-width="1.4126" stroke-linejoin="round" stroke-miterlimit="10" x1="-475.1" y1="43" x2="-453.6" y2="43"/>
</g>
<g>

		<polygon id="XMLID_2_" fill="none" stroke="#FFFFFF" stroke-width="1.4126" stroke-linejoin="round" stroke-miterlimit="10" points="
		-84.7,279.8 -84.7,300.3 -66.9,310.6 -49.1,300.3 -49.1,279.8 -66.9,290.1 	"/>

		<polyline id="XMLID_1_" fill="none" stroke="#FFFFFF" stroke-width="1.4126" stroke-linejoin="round" stroke-miterlimit="10" points="
		-57.9,284.9 -57.9,274.7 -66.9,290.1 -75.9,274.7 -75.9,284.9 	"/>
</g>
<g>

		<circle id="XMLID_23_" fill="none" stroke="#FFFFFF" stroke-width="1.6142" stroke-linecap="round" stroke-linejoin="round" stroke-miterlimit="10" cx="-475.2" cy="449.3" r="1.3"/>

		<circle id="XMLID_24_" fill="none" stroke="#FFFFFF" stroke-width="1.6142" stroke-linecap="round" stroke-linejoin="round" stroke-miterlimit="10" cx="-475.2" cy="482.5" r="1.3"/>

		<circle id="XMLID_26_" fill="none" stroke="#FFFFFF" stroke-width="1.6142" stroke-linecap="round" stroke-linejoin="round" stroke-miterlimit="10" cx="-458.6" cy="465.9" r="1.3"/>

		<circle id="XMLID_25_" fill="none" stroke="#FFFFFF" stroke-width="1.6142" stroke-linecap="round" stroke-linejoin="round" stroke-miterlimit="10" cx="-491.8" cy="465.9" r="1.3"/>

		<circle id="XMLID_30_" fill="none" stroke="#FFFFFF" stroke-width="1.6142" stroke-linecap="round" stroke-linejoin="round" stroke-miterlimit="10" cx="-463.5" cy="454.1" r="1.3"/>

		<circle id="XMLID_29_" fill="none" stroke="#FFFFFF" stroke-width="1.6142" stroke-linecap="round" stroke-linejoin="round" stroke-miterlimit="10" cx="-486.9" cy="477.6" r="1.3"/>

		<circle id="XMLID_28_" fill="none" stroke="#FFFFFF" stroke-width="1.6142" stroke-linecap="round" stroke-linejoin="round" stroke-miterlimit="10" cx="-463.5" cy="477.6" r="1.3"/>

		<circle id="XMLID_27_" fill="none" stroke="#FFFFFF" stroke-width="1.6142" stroke-linecap="round" stroke-linejoin="round" stroke-miterlimit="10" cx="-486.9" cy="454.1" r="1.3"/>

		<line fill="none" stroke="#FFFFFF" stroke-width="1.6142" stroke-linecap="round" stroke-linejoin="round" stroke-miterlimit="10" x1="-475.2" y1="452.7" x2="-475.2" y2="461.2"/>

		<line fill="none" stroke="#FFFFFF" stroke-width="1.6142" stroke-linecap="round" stroke-linejoin="round" stroke-miterlimit="10" x1="-475.2" y1="470.7" x2="-475.2" y2="479.1"/>

		<line fill="none" stroke="#FFFFFF" stroke-width="1.6142" stroke-linecap="round" stroke-linejoin="round" stroke-miterlimit="10" x1="-462" y1="465.9" x2="-470.5" y2="465.9"/>

		<line fill="none" stroke="#FFFFFF" stroke-width="1.6142" stroke-linecap="round" stroke-linejoin="round" stroke-miterlimit="10" x1="-480" y1="465.9" x2="-488.5" y2="465.9"/>

		<line fill="none" stroke="#FFFFFF" stroke-width="1.6142" stroke-linecap="round" stroke-linejoin="round" stroke-miterlimit="10" x1="-465.9" y1="475.3" x2="-471.9" y2="469.3"/>

		<line fill="none" stroke="#FFFFFF" stroke-width="1.6142" stroke-linecap="round" stroke-linejoin="round" stroke-miterlimit="10" x1="-478.6" y1="462.6" x2="-484.6" y2="456.6"/>

		<line fill="none" stroke="#FFFFFF" stroke-width="1.6142" stroke-linecap="round" stroke-linejoin="round" stroke-miterlimit="10" x1="-484.6" y1="475.3" x2="-478.6" y2="469.3"/>

		<line fill="none" stroke="#FFFFFF" stroke-width="1.6142" stroke-linecap="round" stroke-linejoin="round" stroke-miterlimit="10" x1="-471.9" y1="462.6" x2="-465.9" y2="456.6"/>
</g>
<g>
	<path fill="none" stroke="#FFFFFF" stroke-width="1.6142" stroke-linejoin="round" stroke-miterlimit="10" d="M11,27.1L11,27.1
		c-0.9,1.4-2.3,2-3.9,2c-3.9,0-5.8-3.3-5.8-6.9c0-3.4,1.9-6.7,5.7-6.7c1.5,0,3,0.6,3.8,1.9h0V11h3.5v17.7H11V27.1z M7.9,18.2
		c-2.3,0-3.1,2-3.1,4.1c0,2,0.9,4.1,3.1,4.1c2.3,0,3-2,3-4.1C11,20.2,10.2,18.2,7.9,18.2z"/>
	<path fill="none" stroke="#FFFFFF" stroke-width="1.6142" stroke-linejoin="round" stroke-miterlimit="10" d="M33.8,28.7H30
		l-3-12.1h0l-3,12.1H20L15.3,11h3.9L22,23h0L25.1,11h3.6l3,12.2h0L34.8,11h3.8L33.8,28.7z"/>
</g>
</svg>
